<?xml version="1.0" encoding="UTF-8" standalone="no"?>
<!DOCTYPE svg PUBLIC "-//W3C//DTD SVG 1.1//EN" "http://www.w3.org/Graphics/SVG/1.1/DTD/svg11.dtd">
<svg width="100%" height="100%" viewBox="0 0 729 2158" version="1.1" xmlns="http://www.w3.org/2000/svg" xmlns:xlink="http://www.w3.org/1999/xlink" xml:space="preserve" xmlns:serif="http://www.serif.com/" style="fill-rule:evenodd;clip-rule:evenodd;stroke-linejoin:round;stroke-miterlimit:2;">
    <g transform="matrix(1,0,0,1,-785.305,-909.616)">
        <g>
            <g>
                <g transform="matrix(0.791442,0,0,0.791442,363.628,660.473)">
                    <path d="M1061.36,475.75C1062.16,469.043 1073.21,454.699 1079.15,444.182C1086.07,431.937 1093.15,415.063 1102.85,402.278C1113.45,388.305 1134.39,368.219 1142.75,360.345C1145.55,357.71 1155.38,352.036 1152.98,355.035C1150.57,358.052 1136.01,370.149 1128.26,378.444C1120.11,387.169 1110.84,396.779 1104.1,407.384C1094.4,422.633 1071.7,464.324 1070.09,469.936C1068.48,475.548 1085.81,450.22 1094.44,441.055C1104.51,430.37 1117.42,416.374 1130.5,405.823C1144.26,394.72 1164.49,381.392 1177.02,374.437C1185.9,369.509 1206,363.485 1205.67,364.096C1205.34,364.707 1184.67,372.332 1175.04,378.101C1163.36,385.1 1146.92,396.541 1135.57,406.09C1125.12,414.88 1115.93,425.106 1106.96,435.396C1097.4,446.356 1081.83,464.611 1078.24,471.851C1076.76,474.842 1083.8,479.42 1085.42,478.834C1087.04,478.248 1085.54,471.019 1087.94,468.335C1093.97,461.586 1109.87,447.731 1121.6,438.341C1134.31,428.168 1154.34,413.987 1164.22,407.294C1169.46,403.745 1175.24,401.066 1180.87,398.18C1187.64,394.71 1196.67,389.989 1204.84,386.472C1213.45,382.761 1226.05,378.08 1232.56,375.917C1236.24,374.696 1245.18,372.641 1243.93,373.495C1242.68,374.349 1231.23,378.263 1225.04,381.042C1216.18,385.023 1200.95,391.952 1190.76,397.384C1181.52,402.308 1172.43,407.595 1163.88,413.632C1153.38,421.043 1137.03,434.435 1127.75,441.849C1121.13,447.141 1113.88,452.826 1108.2,458.117C1103.02,462.94 1096.65,469.548 1093.68,473.595C1091.83,476.122 1089.93,480.503 1090.39,482.401C1090.85,484.299 1094.59,486.146 1096.45,484.983C1099.81,482.889 1106.03,473.973 1110.52,469.834C1114.47,466.195 1119.15,463.335 1123.39,460.15C1127.58,457.004 1131.66,453.708 1135.96,450.723C1140.5,447.577 1145.78,444.51 1150.6,441.275C1156.2,437.518 1163.12,432.347 1169.57,428.179C1176.12,423.952 1182.82,419.483 1189.88,415.913C1197.68,411.969 1207.08,407.004 1216.36,404.512C1225.85,401.964 1244.85,400.291 1246.82,400.622C1248.79,400.953 1234.3,404.26 1228.18,406.5C1219.76,409.582 1205.35,414.807 1196.31,419.115C1188.5,422.841 1181.19,427.575 1173.97,432.351C1166.7,437.158 1159.72,443.075 1152.72,447.958C1145.93,452.698 1138.5,456.8 1131.99,461.65C1125.59,466.419 1118.85,471.01 1113.66,477.059C1108.47,483.108 1107.39,496.719 1100.84,497.946C1094.29,499.174 1080.91,488.123 1074.33,484.424C1069.8,481.875 1060.74,480.914 1061.36,475.75Z" style="fill:rgb(42,39,38);fill-opacity:0.62;"/>
                </g>
                <g transform="matrix(-0.395721,0.685408,0.685408,0.395721,1219.94,160.017)">
                    <path d="M1061.36,475.75C1062.16,469.043 1073.21,454.699 1079.15,444.182C1086.07,431.937 1093.15,415.063 1102.85,402.278C1113.45,388.305 1134.39,368.219 1142.75,360.345C1145.55,357.71 1155.38,352.036 1152.98,355.035C1150.57,358.052 1136.01,370.149 1128.26,378.444C1120.11,387.169 1110.84,396.779 1104.1,407.384C1094.4,422.633 1071.7,464.324 1070.09,469.936C1068.48,475.548 1085.81,450.22 1094.44,441.055C1104.51,430.37 1117.42,416.374 1130.5,405.823C1144.26,394.72 1164.49,381.392 1177.02,374.437C1185.9,369.509 1206,363.485 1205.67,364.096C1205.34,364.707 1184.67,372.332 1175.04,378.101C1163.36,385.1 1146.92,396.541 1135.57,406.09C1125.12,414.88 1115.93,425.106 1106.96,435.396C1097.4,446.356 1081.83,464.611 1078.24,471.851C1076.76,474.842 1083.8,479.42 1085.42,478.834C1087.04,478.248 1085.54,471.019 1087.94,468.335C1093.97,461.586 1109.87,447.731 1121.6,438.341C1134.31,428.168 1154.34,413.987 1164.22,407.294C1169.46,403.745 1175.24,401.066 1180.87,398.18C1187.64,394.71 1196.67,389.989 1204.84,386.472C1213.45,382.761 1226.05,378.08 1232.56,375.917C1236.24,374.696 1245.18,372.641 1243.93,373.495C1242.68,374.349 1231.23,378.263 1225.04,381.042C1216.18,385.023 1200.95,391.952 1190.76,397.384C1181.52,402.308 1172.43,407.595 1163.88,413.632C1153.38,421.043 1137.03,434.435 1127.75,441.849C1121.13,447.141 1113.88,452.826 1108.2,458.117C1103.02,462.94 1096.65,469.548 1093.68,473.595C1091.83,476.122 1089.93,480.503 1090.39,482.401C1090.85,484.299 1094.59,486.146 1096.45,484.983C1099.81,482.889 1106.03,473.973 1110.52,469.834C1114.47,466.195 1119.15,463.335 1123.39,460.15C1127.58,457.004 1131.66,453.708 1135.96,450.723C1140.5,447.577 1145.78,444.51 1150.6,441.275C1156.2,437.518 1163.12,432.347 1169.57,428.179C1176.12,423.952 1182.82,419.483 1189.88,415.913C1197.68,411.969 1207.08,407.004 1216.36,404.512C1225.85,401.964 1244.85,400.291 1246.82,400.622C1248.79,400.953 1234.3,404.26 1228.18,406.5C1219.76,409.582 1205.35,414.807 1196.31,419.115C1188.5,422.841 1181.19,427.575 1173.97,432.351C1166.7,437.158 1159.72,443.075 1152.72,447.958C1145.93,452.698 1138.5,456.8 1131.99,461.65C1125.59,466.419 1118.85,471.01 1113.66,477.059C1108.47,483.108 1107.39,496.719 1100.84,497.946C1094.29,499.174 1080.91,488.123 1074.33,484.424C1069.8,481.875 1060.74,480.914 1061.36,475.75Z" style="fill:rgb(42,39,38);fill-opacity:0.62;"/>
                </g>
                <g transform="matrix(0.791442,0,0,0.791442,363.628,660.473)">
                    <path d="M684.581,1464.45C669.957,1465.94 656.788,1449.14 642.331,1451.81C625.386,1454.93 595.3,1468.34 582.911,1483.19C570.521,1498.04 566.875,1521.08 567.994,1540.93C569.33,1564.63 580.649,1599.01 590.926,1625.38C601.011,1651.26 619.954,1680.4 629.655,1699.16C636.297,1712 641.332,1731.62 649.13,1737.92C656.218,1743.64 668.049,1734.27 676.445,1736.95C684.841,1739.63 693.963,1746.21 699.507,1754C715.24,1776.1 754.643,1841.09 770.841,1869.55C780.892,1887.21 786.194,1907.36 796.697,1924.75C807.505,1942.65 801.942,1989.88 835.69,1976.95C887.791,1956.98 949.739,1966.58 984.171,1967.66C1019.94,1968.78 1029.78,1973.88 1046.04,1961C1067.37,1944.08 1090.32,1887.82 1112.18,1866.15C1129.69,1848.8 1162.28,1850.58 1177.22,1830.98C1200.35,1800.64 1228.8,1729.29 1250.99,1684.09C1271.24,1642.85 1302.8,1601.53 1310.4,1559.73C1317.99,1518.01 1295.51,1470.08 1296.6,1433.27C1297.56,1401.09 1306.53,1369.31 1316.99,1338.86C1328.79,1304.48 1355.3,1266.03 1367.43,1226.95C1380.41,1185.12 1391.43,1134.97 1394.91,1087.82C1398.59,1037.93 1404.01,979.041 1389.54,927.599C1367.28,848.467 1289.11,671.31 1261.35,613.032C1253.9,597.387 1233.82,586.513 1223,577.934C1214.84,571.467 1205.18,567.163 1196.41,561.555C1187.45,555.83 1173.74,550.803 1169.26,543.58C1164.8,536.396 1172.49,523.026 1169.52,518.217C1166.55,513.408 1156.83,517.66 1151.44,514.727C1141.54,509.341 1124.61,494.385 1110.11,485.902C1095.19,477.174 1079.27,466.771 1061.95,462.357C1055.94,460.824 1033.45,457.429 1021.34,462.586C997.407,472.767 979.593,493.725 961.857,509.699C951.201,519.296 953.598,540.755 953.817,547.575C954.32,563.236 957.558,578.749 957.746,594.417C957.985,614.303 954.944,642.72 955.252,666.89C955.572,692.014 955.515,719.361 959.668,745.16C965.301,780.153 982.739,852.289 989.049,876.846C990.526,882.595 998.248,886.613 997.529,892.505C996.211,903.307 986.883,925.368 981.14,941.656C974.462,960.597 963.144,983.966 957.458,1006.15C951.544,1029.23 951.764,1055.9 945.655,1080.11C938.669,1107.79 929.326,1145.34 915.541,1172.25C902.318,1198.07 877.966,1223.1 862.948,1241.57C851.182,1256.04 835.315,1267.27 825.436,1283.09C814.876,1300 806.739,1326.23 799.587,1343.04C793.804,1356.63 790.77,1371.68 782.523,1383.93C771.353,1400.53 748.889,1429.2 732.565,1442.62C718.991,1453.78 699.62,1462.92 684.581,1464.45Z" style="fill:rgb(42,39,38);fill-opacity:0.62;"/>
                </g>
                <g transform="matrix(0.791442,0,0,0.791442,384.628,650.473)">
                    <path d="M889.918,1988.45C957.494,1953.91 925.134,1942.82 925.637,1934.1C926.141,1925.37 903.754,1934.59 892.94,1936.11C881.937,1937.65 865.28,1945.35 859.619,1943.35C853.958,1941.36 863.832,1925.89 858.975,1924.13C854.118,1922.37 837.019,1937.81 830.477,1932.78C823.935,1927.75 824.726,1899.46 819.724,1893.93C815.235,1888.96 806.453,1902.58 800.464,1899.59C792.317,1895.53 774.33,1865.36 770.841,1869.55C767.352,1873.74 780.989,1906.18 779.533,1924.75C776.473,1963.79 761.427,2044.11 752.479,2103.8C739.639,2189.46 705.171,2358.68 702.492,2438.72C700.828,2488.44 716.638,2538.4 736.406,2584.05C756.393,2630.2 800.159,2669.85 822.414,2715.64C844.391,2760.86 863.212,2820.21 869.934,2858.79C875.005,2887.9 872.344,2920.38 862.745,2947.14C853.146,2973.9 808.36,3019.05 812.341,3019.34C816.323,3019.63 871.136,2976.94 886.635,2948.88C902.134,2920.82 905.286,2885.47 905.337,2850.99C905.377,2824.37 900.449,2799.23 891.738,2756.14C880.791,2701.99 875.951,2705.23 855.674,2666.22C827.466,2611.95 785.918,2558.55 770.624,2503.64C755.688,2450.02 757.353,2392.06 763.912,2336.78C772.501,2264.4 801.155,2127.41 822.156,2069.36C834.123,2036.28 866.049,2000.65 889.918,1988.45Z" style="fill:rgb(42,39,38);fill-opacity:0.62;"/>
                </g>
                <g transform="matrix(1,0,0,1,27.7066,31.1719)">
                    <path d="M1357.27,1143.08C1356.49,1145.25 1355.61,1148.08 1354.76,1150.58C1353.37,1154.72 1350.66,1162.89 1348.88,1167.97C1347.35,1172.35 1344.49,1176.42 1344.09,1181.05C1343.6,1186.77 1343.34,1195.82 1345.93,1202.28C1348.53,1208.75 1355.17,1215.65 1359.66,1219.84C1363.37,1223.3 1367.84,1226.68 1372.86,1227.42C1378.1,1228.19 1384.99,1225.26 1391.09,1224.47C1398.29,1223.53 1409.18,1222.29 1416.04,1221.8C1421.43,1221.41 1426.84,1221.36 1432.24,1221.5C1438.03,1221.64 1445.62,1222.5 1450.78,1222.67C1454.91,1222.81 1459.58,1223.05 1463.18,1222.54C1466.36,1222.09 1471.76,1222.22 1472.36,1219.61C1472.96,1217 1469.27,1210.78 1466.77,1206.88C1463.91,1202.42 1459.63,1196.99 1455.21,1192.86C1449.99,1187.98 1441.29,1182.42 1435.47,1177.65C1430.25,1173.37 1425.6,1168.36 1420.28,1164.23C1414.96,1160.11 1409.5,1156.07 1403.57,1152.88C1397.63,1149.69 1390.56,1147.58 1384.62,1145.07C1379.04,1142.72 1371.9,1140 1367.94,1137.86C1365.29,1136.43 1362.28,1132.31 1360.86,1132.25C1359.44,1132.2 1360,1135.8 1359.43,1137.53C1358.83,1139.33 1357.94,1141.21 1357.27,1143.08Z" style="fill:rgb(42,39,38);fill-opacity:0.62;"/>
                </g>
                <g transform="matrix(1,0,0,1,27.7066,31.1719)">
                    <path d="M1096.15,1008.95C1096.24,1006.84 1098.21,1002.43 1100.2,999.727C1102.25,996.944 1105.4,994.355 1108.44,992.256C1111.48,990.158 1115.57,987.808 1118.45,987.137C1120.84,986.579 1123.74,987.248 1125.74,988.225C1127.73,989.201 1128.27,992.406 1130.42,992.995C1133.55,993.85 1140.49,992.987 1144.48,993.357C1147.82,993.667 1152.74,993.438 1154.36,995.217C1155.98,996.995 1155.22,1001.54 1154.2,1004.03C1153.19,1006.51 1149.4,1007.52 1148.28,1010.13C1147.03,1013.02 1148.9,1018.32 1146.7,1021.42C1144.01,1025.22 1137.21,1030.82 1132.09,1032.93C1127.12,1034.99 1120.36,1033.15 1115.99,1034.09C1112.39,1034.87 1109.51,1037.84 1105.9,1038.58C1102.25,1039.33 1095.88,1039.33 1094.07,1038.58C1092.65,1037.99 1094.36,1035.46 1095.04,1034.08C1095.99,1032.14 1098.64,1029.57 1099.8,1026.95C1100.98,1024.26 1102.16,1020.35 1102.14,1017.93C1102.12,1015.92 1100.66,1013.92 1099.66,1012.42C1098.74,1011.05 1096.08,1010.6 1096.15,1008.95Z" style="fill:rgb(42,39,38);fill-opacity:0.62;"/>
                </g>
                <g transform="matrix(1,0,0,1,27.7066,31.1719)">
                    <path d="M1112.53,1015.45C1115.3,1014.25 1118.12,1012.43 1120.67,1010.54C1123.36,1008.56 1126.59,1005.91 1128.68,1003.52C1130.57,1001.36 1132.88,998.109 1133.24,996.204C1133.53,994.642 1131.84,993.312 1130.83,992.089C1129.79,990.839 1128.51,989.486 1127,988.701C1125.18,987.754 1121.98,986.485 1119.88,986.405C1117.98,986.332 1116.11,987.286 1114.45,988.22C1111.94,989.625 1107.74,992.364 1104.85,994.835C1101.99,997.281 1098.63,1000.7 1097.09,1003.05C1095.99,1004.72 1095.09,1006.94 1095.59,1008.88C1096.1,1010.89 1098.73,1013.57 1100.14,1015.05C1101.24,1016.21 1102.48,1017.72 1104.07,1017.77C1106.13,1017.84 1109.85,1016.62 1112.53,1015.45Z" style="fill:rgb(42,39,38);fill-opacity:0.62;"/>
                </g>
                <g transform="matrix(1,0,0,1,27.7066,31.1719)">
                    <path d="M1105.01,1216.26C1106.02,1212.5 1104.16,1206.73 1103.48,1202.19C1102.82,1197.76 1101.55,1193.44 1100.93,1189C1099.8,1180.88 1097.23,1165.36 1096.69,1153.44C1095.84,1134.78 1096.5,1094.49 1095.83,1077.06C1095.47,1067.61 1093.57,1050.7 1092.67,1048.87C1091.77,1047.04 1090.26,1060.29 1090.42,1066.07C1090.6,1072.3 1093.17,1079.45 1093.73,1086.25C1094.31,1093.41 1094,1101.43 1093.92,1109.03C1093.81,1121.35 1092.92,1149.28 1093.02,1160.19C1093.06,1164.98 1094.34,1169.7 1094.47,1174.5C1094.62,1180.12 1093.68,1187.43 1093.9,1193.9C1094.13,1200.66 1095.26,1209.9 1095.85,1215.03C1096.23,1218.28 1095.93,1224.51 1097.45,1224.71C1098.98,1224.92 1104.04,1219.91 1105.01,1216.26Z" style="fill:rgb(42,39,38);fill-opacity:0.62;"/>
                </g>
                <g transform="matrix(1,0,0,1,27.7066,31.1719)">
                    <path d="M1244.49,1035.28C1242.78,1034.29 1240.37,1035.25 1238.58,1034.94C1236.91,1034.66 1235.1,1033.7 1233.75,1033.45C1232.66,1033.26 1230.86,1033.04 1230.44,1033.45C1230.02,1033.87 1230.89,1035.14 1231.22,1035.94C1231.83,1037.41 1233.8,1039.95 1234.08,1042.23C1234.49,1045.59 1232.7,1051.56 1233.67,1056.07C1234.72,1060.88 1237.08,1066.73 1240.34,1071.11C1243.61,1075.5 1248.52,1079.34 1253.28,1082.37C1258.04,1085.4 1263.36,1087.98 1268.89,1089.31C1275.09,1090.8 1285.43,1090.72 1290.46,1091.31C1293.36,1091.66 1296.89,1092.64 1299.07,1092.89C1300.56,1093.05 1302.69,1093.75 1303.56,1092.77C1304.43,1091.8 1304.81,1088.91 1304.3,1087.05C1303.72,1084.96 1301.96,1082.13 1300.1,1080.2C1294.98,1074.88 1282.85,1062.61 1273.58,1055.12C1264.45,1047.75 1250.33,1038.64 1244.49,1035.28Z" style="fill:rgb(42,39,38);fill-opacity:0.62;"/>
                </g>
                <g transform="matrix(1,0,0,1,27.7066,31.1719)">
                    <path d="M1092.76,1173.59C1093.81,1174.72 1096.39,1169.88 1098.16,1167.98C1100.32,1165.65 1103.24,1162.43 1105.73,1159.61C1109.08,1155.83 1115.62,1150.08 1118.24,1145.29C1120.59,1140.98 1121.03,1135.8 1121.39,1130.9C1121.78,1125.66 1121.98,1118.45 1120.58,1113.88C1119.32,1109.77 1115.37,1106.66 1112.98,1103.48C1110.77,1100.53 1108.65,1097.25 1106.22,1094.74C1103.89,1092.33 1100.32,1088.53 1098.39,1088.42C1096.46,1088.32 1095.35,1091.97 1094.63,1094.13C1093.89,1096.34 1094.02,1099.17 1093.95,1101.71C1093.72,1110.38 1093.58,1136.24 1093.23,1146.16C1093.05,1151.18 1091.94,1156.61 1091.86,1161.19C1091.79,1165.33 1091.71,1172.46 1092.76,1173.59Z" style="fill:rgb(42,39,38);fill-opacity:0.62;"/>
                </g>
                <g transform="matrix(1,0,0,1,27.7066,31.1719)">
                    <path d="M1096.25,1101.99C1092.68,1102.74 1089.96,1106.43 1087.2,1109.09C1084.22,1111.96 1079.96,1115.5 1078.35,1119.24C1076.73,1122.98 1076.72,1127.72 1077.51,1131.52C1078.29,1135.33 1080.96,1138.7 1083.05,1142.08C1085.21,1145.58 1088.17,1150.07 1090.5,1152.52C1092.28,1154.39 1094.89,1156.36 1096.99,1156.77C1099.08,1157.17 1101.59,1156.45 1103.12,1154.98C1105.91,1152.28 1111.62,1146.04 1113.73,1140.59C1115.84,1135.14 1116.61,1128.26 1115.76,1122.26C1114.91,1116.27 1111.87,1108.01 1108.62,1104.63C1105.69,1101.6 1099.82,1101.25 1096.25,1101.99Z" style="fill:rgb(42,39,38);fill-opacity:0.62;"/>
                </g>
                <g transform="matrix(1.09196,0.750314,-0.566319,0.824186,513.662,-728.716)">
                    <ellipse cx="1254.5" cy="1056.76" rx="2.669" ry="7.556" style="fill:rgb(42,39,38);fill-opacity:0.62;"/>
                </g>
                <g transform="matrix(1,0,0,1,25.7066,31.1719)">
                    <path d="M1086.06,1125.86C1085.26,1127.5 1085.57,1129.63 1086.06,1131.35C1086.55,1133.06 1087.55,1134.95 1088.99,1136.17C1090.69,1137.61 1093.68,1140.13 1096.26,1140.01C1098.84,1139.9 1102.65,1138 1104.46,1135.48C1106.26,1132.95 1106.75,1127.81 1107.09,1124.86C1107.36,1122.5 1107.4,1119.95 1106.48,1117.76C1105.51,1115.45 1103.26,1111.62 1101.28,1110.98C1099.29,1110.33 1096.31,1112.16 1094.56,1113.87C1092.03,1116.35 1087.48,1122.95 1086.06,1125.86Z" style="fill:rgb(42,39,38);fill-opacity:0.62;"/>
                </g>
                <g transform="matrix(1.12371,0.701875,-0.529759,0.848148,266.238,-624.039)">
                    <ellipse cx="1254.5" cy="1056.76" rx="2.669" ry="7.556" style="fill:rgb(42,39,38);fill-opacity:0.62;"/>
                </g>
                <g transform="matrix(1,0,0,1,27.7066,31.1719)">
                    <path d="M1154.13,1257.72C1158.91,1256.62 1160.55,1266.44 1165.18,1268.87C1171.15,1272.01 1182.43,1272.32 1189.98,1276.56C1200.31,1282.36 1220.44,1295.37 1227.18,1303.71C1232.02,1309.71 1236.34,1321.72 1230.39,1326.63C1223.33,1332.45 1196.95,1332.32 1184.79,1338.67C1173.62,1344.5 1163.96,1353.96 1157.42,1364.74C1149.08,1378.49 1138.06,1403.94 1134.74,1421.17C1131.77,1436.58 1137.07,1452.48 1137.51,1468.16C1138.04,1486.81 1144.56,1522.25 1137.89,1533.06C1131.23,1543.86 1110.09,1528.19 1097.51,1532.97C1084.6,1537.88 1067.94,1560.18 1060.47,1562.51C1055.53,1564.05 1063.52,1551.54 1065.24,1546.11C1068.73,1535.1 1077.4,1513.36 1081.44,1496.41C1085.69,1478.57 1087.62,1454.15 1090.74,1439.1C1093.07,1427.9 1096.44,1416.91 1100.21,1406.11C1104.41,1394.08 1111.79,1377.84 1115.91,1366.97C1119.18,1358.36 1124.25,1347.75 1124.96,1340.87C1125.51,1335.58 1121.62,1329.53 1120.19,1325.66C1119.17,1322.89 1115.51,1320.45 1116.42,1317.64C1119.14,1309.28 1130.25,1285.46 1136.54,1275.48C1140.97,1268.42 1149.36,1258.82 1154.13,1257.72Z" style="fill:rgb(42,39,38);fill-opacity:0.62;"/>
                </g>
                <g transform="matrix(1,0,0,1,27.7066,31.1719)">
                    <path d="M1011.6,2149.62C1012.46,2147.04 1001.32,2146.58 999.261,2142.68C997.205,2138.78 1002.33,2130.78 999.261,2126.23C996.166,2121.65 982.954,2122.03 980.69,2115.19C977.554,2105.72 986.198,2083.54 980.443,2069.41C973.407,2052.12 948.946,2032.17 938.472,2011.49C928.021,1990.86 929.191,1960.34 917.598,1945.31C906.548,1930.98 884.147,1927.62 868.914,1921.29C855.08,1915.53 838.899,1915.23 826.201,1907.27C813.122,1899.08 794.044,1872 790.442,1872.13C786.839,1872.26 799.679,1896.14 804.586,1908.03C810.78,1923.05 821.593,1949.09 827.605,1962.19C831.461,1970.6 837.689,1980.5 840.655,1986.69C842.601,1990.75 842.843,1995.96 845.4,1999.34C847.958,2002.73 852.484,2006.36 856.001,2007C859.517,2007.64 863.009,2003.68 866.5,2003.2C869.961,2002.72 874.408,2001.7 876.943,2004.1C883.376,2010.2 896.414,2027.96 905.097,2039.79C913.506,2051.23 922.209,2063.67 929.045,2075.03C935.419,2085.63 939.443,2098.47 946.115,2107.97C952.491,2117.06 962.75,2128.79 969.079,2132.08C973.699,2134.49 980.488,2123.98 984.089,2127.74C988.252,2132.09 989.467,2154.52 994.052,2158.16C998.636,2161.81 1010.73,2152.2 1011.6,2149.62Z" style="fill:rgb(42,39,38);fill-opacity:0.62;"/>
                </g>
                <g transform="matrix(1,0,0,1,27.7066,31.1719)">
                    <path d="M883.456,1788.13C884.031,1790.3 900.729,1789.67 909.269,1791.12C920.784,1793.08 942.062,1799.5 952.544,1799.86C959.437,1800.09 966.491,1795.9 972.163,1793.28C977.326,1790.9 982.896,1788.03 986.575,1784.16C990.255,1780.29 995.986,1775.12 994.243,1770.07C991.71,1762.72 975.256,1750.16 971.376,1740.08C967.726,1730.6 970.481,1719.33 970.963,1709.6C971.426,1700.26 975.041,1683.97 974.271,1681.74C973.5,1679.51 968.576,1691.21 966.338,1696.24C963.891,1701.75 962.514,1708.87 959.592,1714.75C956.407,1721.16 951.761,1728.34 947.224,1734.71C941.806,1742.33 933.985,1753.22 927.085,1760.45C920.725,1767.12 913.093,1773.51 905.821,1778.12C898.924,1782.49 882.881,1785.96 883.456,1788.13Z" style="fill:rgb(42,39,38);fill-opacity:0.62;"/>
                </g>
                <g transform="matrix(1,0,0,1,18.801,0.2544)">
                    <path d="M1119.92,1322.68C1123.11,1318.99 1127.23,1316.02 1129.71,1311.82C1133.2,1305.92 1137.35,1294.47 1140.85,1287.29C1143.92,1281 1148.82,1275.05 1150.7,1268.74C1152.55,1262.57 1154.32,1255.54 1152.16,1249.47C1149.75,1242.68 1141.77,1233.21 1136.23,1228.02C1131.4,1223.5 1124.09,1220.2 1118.92,1218.35C1114.6,1216.79 1108.76,1216.49 1105.23,1216.89C1102.43,1217.2 1099.57,1218.94 1097.7,1220.73C1095.83,1222.52 1095.38,1225.43 1094,1227.65C1092.35,1230.29 1089.26,1233.78 1087.81,1236.55C1086.55,1238.94 1085.77,1241.6 1085.29,1244.26C1084.41,1249.15 1083.06,1259.42 1082.53,1265.85C1082.07,1271.49 1082.27,1277.93 1082.14,1282.82C1082.04,1286.94 1082.56,1291.14 1081.76,1295.18C1080.59,1301.08 1076.33,1312.22 1075.11,1318.19C1074.26,1322.39 1074.27,1326.75 1074.45,1331.03C1074.69,1336.9 1075.61,1348.3 1076.55,1353.44C1077.1,1356.43 1078.78,1360.29 1080.07,1361.86C1080.99,1362.98 1083.13,1363.74 1084.3,1362.88C1087.26,1360.69 1093.5,1353.62 1097.82,1348.74C1103.76,1342.04 1114.61,1328.83 1119.92,1322.68Z" style="fill:rgb(42,39,38);fill-opacity:0.62;"/>
                </g>
            </g>
            <g>
                <g transform="matrix(1,0,0,1,-8.99764,2.9769)">
                    <path d="M1259.89,2149.87C1260.31,2146.41 1258.8,2139.67 1261.75,2139.58C1264.69,2139.48 1271.46,2148.32 1277.57,2149.3C1284.33,2150.38 1295.95,2147.56 1302.29,2146.08C1306.97,2144.98 1311.04,2142.05 1315.56,2140.41C1320.09,2138.75 1326.41,2136.69 1329.47,2136.17C1330.98,2135.91 1333.51,2136.38 1333.92,2137.29C1334.34,2138.2 1332.86,2140.34 1331.96,2141.65C1329.62,2145.04 1323.05,2153.08 1319.92,2157.64C1317.42,2161.28 1313.28,2166.32 1313.14,2169.02C1313.01,2171.57 1316.94,2172.47 1319.1,2173.83C1321.92,2175.61 1326.15,2178.27 1330.04,2179.66C1334.41,2181.21 1342.92,2182.08 1345.31,2183.16C1346.25,2183.59 1345.24,2185.56 1344.37,2186.13C1342.7,2187.23 1338.32,2188.54 1335.31,2189.78C1331.87,2191.2 1325.77,2193.36 1323.74,2194.63C1322.94,2195.14 1322.52,2196.72 1323.16,2197.4C1324.21,2198.52 1327.55,2200.45 1330.03,2201.36C1334.16,2202.86 1344.29,2204.93 1347.94,2206.45C1349.68,2207.18 1352.12,2209.05 1351.91,2210.48C1351.7,2211.9 1348.69,2213.89 1346.67,2214.99C1343.17,2216.9 1336.55,2220.97 1330.88,2221.91C1324.17,2223.03 1314.56,2221.49 1306.4,2221.69C1296.49,2221.94 1278.59,2222.87 1271.38,2223.42C1268.58,2223.64 1262.84,2222.91 1263.12,2225.05C1263.41,2227.18 1271.35,2233.26 1273.09,2236.22C1274.21,2238.12 1273.5,2240.61 1273.55,2242.81C1273.63,2246.08 1273.92,2253.03 1273.55,2255.81C1273.37,2257.22 1272.76,2259.56 1271.34,2259.45C1268.73,2259.26 1262.02,2257.02 1257.89,2254.66C1251.65,2251.11 1240.1,2242.26 1233.93,2238.12C1229.65,2235.25 1225.69,2231.68 1220.88,2229.82C1215.9,2227.88 1209.25,2228.86 1204.02,2226.51C1198.5,2224.04 1183.94,2217.08 1187.74,2214.96C1191.53,2212.84 1217.12,2217.45 1226.81,2213.78C1235.63,2210.44 1240.69,2200.41 1245.92,2192.92C1251.09,2185.53 1255.9,2176 1258.23,2168.82C1260.18,2162.79 1259.31,2154.75 1259.89,2149.87Z" style="fill:rgb(160,134,119);"/>
                </g>
                <path d="M1444.17,1298.32C1443.99,1295.76 1444.87,1293.24 1445.38,1290.73C1445.98,1287.78 1446.94,1282.41 1447.75,1280.6C1448.1,1279.82 1449.71,1279.19 1450.23,1279.88C1451,1280.87 1451.59,1284.38 1452.36,1286.6C1453.2,1289.02 1454.43,1292.86 1455.3,1294.43C1455.74,1295.23 1457.06,1296.78 1457.56,1296C1458.37,1294.72 1459.47,1289.86 1460.2,1286.74C1461.25,1282.21 1462.53,1274.32 1463.86,1268.85C1465.09,1263.8 1466.21,1258.49 1468.2,1253.88C1470.16,1249.37 1473.64,1244.19 1475.82,1241.23C1477.3,1239.22 1480.41,1236.28 1481.29,1236.12C1482.16,1235.97 1481.32,1238.94 1481.08,1240.31C1480.7,1242.42 1479.81,1245.96 1479.03,1248.75C1478.19,1251.74 1476.7,1255.28 1476.05,1258.28C1475.44,1261.05 1475.16,1264.74 1475.12,1266.74C1475.09,1267.95 1475.19,1270.03 1475.77,1270.3C1476.35,1270.58 1477.76,1269.16 1478.59,1268.38C1479.76,1267.29 1481.44,1265.28 1482.78,1263.77C1484.09,1262.3 1485.67,1261.03 1486.65,1259.32C1487.73,1257.45 1488.23,1254.66 1489.26,1252.53C1490.27,1250.44 1492.2,1246.95 1492.82,1246.55C1493.44,1246.14 1493.06,1248.92 1492.97,1250.1C1492.76,1253.08 1492.25,1261 1491.53,1264.41C1491.06,1266.63 1489.62,1268.53 1488.63,1270.57C1487.62,1272.68 1485.52,1275.91 1485.4,1277.07C1485.32,1277.94 1487.13,1277.85 1487.96,1277.58C1488.97,1277.25 1490.47,1276.13 1491.44,1275.1C1492.43,1274.04 1493.07,1272.53 1493.91,1271.26C1494.91,1269.75 1496.28,1267.8 1497.43,1266.04C1498.74,1264.06 1500.95,1259.93 1501.76,1259.35C1502.56,1258.76 1502.28,1261.45 1502.23,1262.53C1502.09,1265.32 1501.74,1271.87 1500.93,1276.1C1500.16,1280.13 1498.94,1284.31 1497.38,1287.88C1495.88,1291.32 1493.53,1294.33 1491.58,1297.54C1489.48,1300.99 1486.34,1305.39 1484.79,1308.63C1483.53,1311.25 1482.69,1314.39 1482.26,1316.98C1481.87,1319.34 1482.06,1322.05 1482.23,1324.17C1482.37,1326.03 1482.39,1329.35 1483.23,1329.68C1484.08,1330 1486.16,1327.51 1487.3,1326.11C1488.81,1324.25 1490.21,1320.69 1492.32,1318.51C1494.68,1316.06 1498.34,1313.63 1501.5,1311.4C1504.92,1308.99 1510.82,1304.98 1512.82,1304.05C1513.38,1303.79 1513.77,1305.26 1513.46,1305.8C1511.97,1308.49 1507.07,1315.63 1503.87,1320.19C1500.78,1324.6 1497.04,1329.28 1494.27,1333.19C1491.85,1336.61 1489.3,1340.34 1487.26,1343.63C1485.39,1346.67 1483.43,1349.68 1482.08,1352.98C1480.4,1357.07 1478.4,1362.99 1477.2,1368.18C1475.88,1373.93 1477.52,1381.93 1474.15,1387.51C1470.05,1394.29 1456.68,1412.83 1452.6,1408.86C1448.52,1404.9 1450.8,1377.19 1449.68,1363.71C1448.7,1351.77 1446.27,1334.76 1445.91,1327.96C1445.82,1326.19 1447.69,1324.68 1447.59,1322.91C1447.29,1317.97 1444.54,1303.68 1444.17,1298.32Z" style="fill:rgb(160,134,119);"/>
                <path d="M1456.74,1405.87L1457.92,1393.27L1462.27,1374.18L1458.4,1347.98L1450.95,1330.69L1446.4,1324.84L1441.56,1332.57L1442.01,1376.78L1444.92,1398.82L1453.73,1408.74L1456.74,1405.87Z" style="fill:rgb(146,121,106);"/>
                <path d="M1181.12,2218.29L1187.5,2224.79L1200.08,2229.85L1210.77,2229.85L1230.58,2221.38L1243.37,2210.02L1256.75,2200.67L1261.16,2190.21L1266.3,2174.1L1269.08,2162.84L1262.82,2147.16L1243.59,2152.36L1181.12,2218.29Z" style="fill:rgb(146,121,106);"/>
                <g transform="matrix(0.791442,0,0,0.791442,335.922,629.301)">
                    <path d="M1061.36,475.75C1062.16,469.043 1073.21,454.699 1079.15,444.182C1086.07,431.937 1093.15,415.063 1102.85,402.278C1113.45,388.305 1134.39,368.219 1142.75,360.345C1145.55,357.71 1155.38,352.036 1152.98,355.035C1150.57,358.052 1136.01,370.149 1128.26,378.444C1120.11,387.169 1110.84,396.779 1104.1,407.384C1094.4,422.633 1071.7,464.324 1070.09,469.936C1068.48,475.548 1085.81,450.22 1094.44,441.055C1104.51,430.37 1117.42,416.374 1130.5,405.823C1144.26,394.72 1164.49,381.392 1177.02,374.437C1185.9,369.509 1206,363.485 1205.67,364.096C1205.34,364.707 1184.67,372.332 1175.04,378.101C1163.36,385.1 1146.92,396.541 1135.57,406.09C1125.12,414.88 1115.93,425.106 1106.96,435.396C1097.4,446.356 1081.83,464.611 1078.24,471.851C1076.76,474.842 1083.8,479.42 1085.42,478.834C1087.04,478.248 1085.54,471.019 1087.94,468.335C1093.97,461.586 1109.87,447.731 1121.6,438.341C1134.31,428.168 1154.34,413.987 1164.22,407.294C1169.46,403.745 1175.24,401.066 1180.87,398.18C1187.64,394.71 1196.67,389.989 1204.84,386.472C1213.45,382.761 1226.05,378.08 1232.56,375.917C1236.24,374.696 1245.18,372.641 1243.93,373.495C1242.68,374.349 1231.23,378.263 1225.04,381.042C1216.18,385.023 1200.95,391.952 1190.76,397.384C1181.52,402.308 1172.43,407.595 1163.88,413.632C1153.38,421.043 1137.03,434.435 1127.75,441.849C1121.13,447.141 1113.88,452.826 1108.2,458.117C1103.02,462.94 1096.65,469.548 1093.68,473.595C1091.83,476.122 1089.93,480.503 1090.39,482.401C1090.85,484.299 1094.59,486.146 1096.45,484.983C1099.81,482.889 1106.03,473.973 1110.52,469.834C1114.47,466.195 1119.15,463.335 1123.39,460.15C1127.58,457.004 1131.66,453.708 1135.96,450.723C1140.5,447.577 1145.78,444.51 1150.6,441.275C1156.2,437.518 1163.12,432.347 1169.57,428.179C1176.12,423.952 1182.82,419.483 1189.88,415.913C1197.68,411.969 1207.08,407.004 1216.36,404.512C1225.85,401.964 1244.85,400.291 1246.82,400.622C1248.79,400.953 1234.3,404.26 1228.18,406.5C1219.76,409.582 1205.35,414.807 1196.31,419.115C1188.5,422.841 1181.19,427.575 1173.97,432.351C1166.7,437.158 1159.72,443.075 1152.72,447.958C1145.93,452.698 1138.5,456.8 1131.99,461.65C1125.59,466.419 1118.85,471.01 1113.66,477.059C1108.47,483.108 1107.39,496.719 1100.84,497.946C1094.29,499.174 1080.91,488.123 1074.33,484.424C1069.8,481.875 1060.74,480.914 1061.36,475.75Z" style="fill:rgb(55,53,54);"/>
                </g>
                <g transform="matrix(-0.395721,0.685408,0.685408,0.395721,1192.23,128.845)">
                    <path d="M1061.36,475.75C1062.16,469.043 1073.21,454.699 1079.15,444.182C1086.07,431.937 1093.15,415.063 1102.85,402.278C1113.45,388.305 1134.39,368.219 1142.75,360.345C1145.55,357.71 1155.38,352.036 1152.98,355.035C1150.57,358.052 1136.01,370.149 1128.26,378.444C1120.11,387.169 1110.84,396.779 1104.1,407.384C1094.4,422.633 1071.7,464.324 1070.09,469.936C1068.48,475.548 1085.81,450.22 1094.44,441.055C1104.51,430.37 1117.42,416.374 1130.5,405.823C1144.26,394.72 1164.49,381.392 1177.02,374.437C1185.9,369.509 1206,363.485 1205.67,364.096C1205.34,364.707 1184.67,372.332 1175.04,378.101C1163.36,385.1 1146.92,396.541 1135.57,406.09C1125.12,414.88 1115.93,425.106 1106.96,435.396C1097.4,446.356 1081.83,464.611 1078.24,471.851C1076.76,474.842 1083.8,479.42 1085.42,478.834C1087.04,478.248 1085.54,471.019 1087.94,468.335C1093.97,461.586 1109.87,447.731 1121.6,438.341C1134.31,428.168 1154.34,413.987 1164.22,407.294C1169.46,403.745 1175.24,401.066 1180.87,398.18C1187.64,394.71 1196.67,389.989 1204.84,386.472C1213.45,382.761 1226.05,378.08 1232.56,375.917C1236.24,374.696 1245.18,372.641 1243.93,373.495C1242.68,374.349 1231.23,378.263 1225.04,381.042C1216.18,385.023 1200.95,391.952 1190.76,397.384C1181.52,402.308 1172.43,407.595 1163.88,413.632C1153.38,421.043 1137.03,434.435 1127.75,441.849C1121.13,447.141 1113.88,452.826 1108.2,458.117C1103.02,462.94 1096.65,469.548 1093.68,473.595C1091.83,476.122 1089.93,480.503 1090.39,482.401C1090.85,484.299 1094.59,486.146 1096.45,484.983C1099.81,482.889 1106.03,473.973 1110.52,469.834C1114.47,466.195 1119.15,463.335 1123.39,460.15C1127.58,457.004 1131.66,453.708 1135.96,450.723C1140.5,447.577 1145.78,444.51 1150.6,441.275C1156.2,437.518 1163.12,432.347 1169.57,428.179C1176.12,423.952 1182.82,419.483 1189.88,415.913C1197.68,411.969 1207.08,407.004 1216.36,404.512C1225.85,401.964 1244.85,400.291 1246.82,400.622C1248.79,400.953 1234.3,404.26 1228.18,406.5C1219.76,409.582 1205.35,414.807 1196.31,419.115C1188.5,422.841 1181.19,427.575 1173.97,432.351C1166.7,437.158 1159.72,443.075 1152.72,447.958C1145.93,452.698 1138.5,456.8 1131.99,461.65C1125.59,466.419 1118.85,471.01 1113.66,477.059C1108.47,483.108 1107.39,496.719 1100.84,497.946C1094.29,499.174 1080.91,488.123 1074.33,484.424C1069.8,481.875 1060.74,480.914 1061.36,475.75Z" style="fill:rgb(55,53,54);"/>
                </g>
                <g transform="matrix(0.791442,0,0,0.791442,335.922,629.301)">
                    <path d="M684.581,1464.45C669.957,1465.94 656.788,1449.14 642.331,1451.81C625.386,1454.93 595.3,1468.34 582.911,1483.19C570.521,1498.04 566.875,1521.08 567.994,1540.93C569.33,1564.63 580.649,1599.01 590.926,1625.38C601.011,1651.26 619.954,1680.4 629.655,1699.16C636.297,1712 641.332,1731.62 649.13,1737.92C656.218,1743.64 668.049,1734.27 676.445,1736.95C684.841,1739.63 693.963,1746.21 699.507,1754C715.24,1776.1 754.643,1841.09 770.841,1869.55C780.892,1887.21 783.383,1909.4 796.697,1924.75C817.223,1948.41 860.25,2024.46 893.998,2011.52C946.099,1991.55 964.917,2000.86 999.35,2001.94C1035.12,2003.06 1079.86,2021.13 1108.69,2009.54C1137.52,1997.94 1162.94,1951.74 1172.35,1932.37C1178.13,1920.47 1160.45,1904.25 1165.13,1893.34C1169.81,1882.43 1192.82,1879.51 1200.41,1866.94C1208.38,1853.75 1206.51,1831.08 1212.94,1814.18C1224.62,1783.46 1251.55,1721.71 1270.52,1682.6C1287.6,1647.38 1319.47,1610.09 1326.77,1579.53C1333.07,1553.18 1313.03,1526.28 1314.33,1499.22C1315.71,1470.46 1324.99,1436.85 1335.04,1406.99C1347.88,1368.85 1378.54,1312.7 1391.35,1270.39C1402.85,1232.41 1408.44,1192.67 1411.9,1153.14C1415.4,1113.04 1413.51,1070.88 1412.38,1029.78C1411.12,984.237 1409.56,912.897 1404.36,879.884C1401.59,862.279 1387.32,846.996 1381.19,831.701C1375.53,817.573 1371.29,800.448 1367.57,788.116C1364.52,778.022 1363.23,767.304 1358.86,757.708C1347.73,733.26 1317.04,665.54 1300.79,641.427C1291.74,627.994 1273.9,623.275 1261.35,613.032C1248.38,602.45 1230.56,588.212 1223,577.934C1217.58,570.556 1219.91,559.651 1216.02,551.364C1211.92,542.641 1206.15,531.121 1198.4,525.596C1190.65,520.072 1177.35,520.029 1169.52,518.217C1163.54,516.833 1156.83,517.66 1151.44,514.727C1141.54,509.341 1124.61,494.385 1110.11,485.902C1095.19,477.174 1079.27,466.771 1061.95,462.357C1055.94,460.824 1033.45,457.429 1021.34,462.586C997.407,472.767 979.593,493.725 961.857,509.699C951.201,519.296 953.598,540.755 953.817,547.575C954.32,563.236 957.558,578.749 957.746,594.417C957.985,614.303 954.944,642.72 955.252,666.89C955.572,692.014 955.515,719.361 959.668,745.16C965.301,780.153 982.739,852.289 989.049,876.846C990.526,882.595 998.248,886.613 997.529,892.505C996.211,903.307 986.883,925.368 981.14,941.656C974.462,960.597 963.144,983.966 957.458,1006.15C951.544,1029.23 951.764,1055.9 945.655,1080.11C938.669,1107.79 929.326,1145.34 915.541,1172.25C902.318,1198.07 877.966,1223.1 862.948,1241.57C851.182,1256.04 835.315,1267.27 825.436,1283.09C814.876,1300 806.739,1326.23 799.587,1343.04C793.804,1356.63 790.77,1371.68 782.523,1383.93C771.353,1400.53 748.889,1429.2 732.565,1442.62C718.991,1453.78 699.62,1462.92 684.581,1464.45Z" style="fill:rgb(76,76,76);"/>
                </g>
                <path d="M1411.43,1696.81C1408.88,1697.55 1410.93,1679.67 1408.98,1671.37C1406.18,1659.47 1393.9,1641.43 1394.65,1625.4C1395.51,1607.15 1409.75,1583.61 1414.12,1561.91C1418.6,1539.63 1418.99,1515.1 1421.56,1491.7C1424.15,1468.02 1428.15,1440.64 1429.69,1419.8C1430.99,1402.12 1430.71,1384.24 1430.77,1366.64C1430.83,1349.15 1432.55,1331.5 1430.06,1314.19C1427.47,1296.17 1420.93,1265.04 1415.21,1258.53C1409.6,1252.12 1402.83,1270.32 1395.79,1275.11C1388.61,1280 1380.33,1287.36 1372.11,1287.86C1363.9,1288.36 1350.24,1283.28 1346.5,1278.09C1342.76,1272.9 1349.66,1263.92 1349.67,1256.72C1349.68,1243.92 1344.75,1208.84 1346.57,1201.3C1347.93,1195.68 1356.88,1207.85 1360.58,1211.51C1363.96,1214.85 1365.19,1221.36 1368.75,1223.2C1372.3,1225.05 1377.54,1223.06 1381.9,1222.59C1387.52,1221.98 1398.11,1219.73 1402.42,1219.58C1404.34,1219.52 1406.75,1220.09 1407.78,1221.72C1409.29,1224.12 1410.13,1229.92 1411.47,1233.97C1414.21,1242.2 1419.79,1258.8 1424.2,1271.13C1429.14,1284.92 1437.29,1306.38 1441.09,1316.68C1443.09,1322.08 1446.08,1327.23 1447.01,1332.91C1448.71,1343.36 1450.38,1363.85 1451.34,1379.38C1452.38,1396.38 1453,1419.75 1453.29,1434.89C1453.51,1446.66 1452.97,1458.45 1453.06,1470.23C1453.17,1485.73 1454.85,1508.68 1453.98,1527.88C1453.09,1547.48 1450.1,1571.54 1447.72,1587.83C1445.86,1600.56 1443.36,1613.25 1439.71,1625.59C1435.8,1638.77 1429,1655.08 1424.29,1666.95C1420.29,1677.03 1413.98,1696.07 1411.43,1696.81Z" style="fill:rgb(68,68,68);fill-opacity:0.69;"/>
                <g transform="matrix(0.791442,0,0,0.791442,335.922,629.301)">
                    <path d="M893.998,2011.52C903.623,2004.66 924.362,2005.24 927.924,2001.21C931.485,1997.18 912.361,1992.82 915.367,1987.36C918.52,1981.64 951.39,1970.69 946.844,1966.86C942.297,1963.02 897.072,1969.47 888.088,1964.35C879.792,1959.61 897.685,1939.61 892.94,1936.11C888.196,1932.61 865.28,1945.35 859.619,1943.35C853.958,1941.36 863.832,1925.89 858.975,1924.13C854.118,1922.37 837.019,1937.81 830.477,1932.78C823.935,1927.75 824.726,1899.46 819.724,1893.93C815.235,1888.96 806.453,1902.58 800.464,1899.59C792.317,1895.53 774.33,1865.36 770.841,1869.55C767.352,1873.74 780.989,1906.18 779.533,1924.75C776.473,1963.79 761.427,2044.11 752.479,2103.8C739.639,2189.46 705.171,2358.68 702.492,2438.72C700.828,2488.44 716.638,2538.4 736.406,2584.05C756.393,2630.2 800.159,2669.85 822.414,2715.64C844.391,2760.86 862,2810.13 869.934,2858.79C877.868,2907.45 878.405,2970.77 870.018,3007.61C863.502,3036.23 816.177,3076.93 819.614,3079.81C823.051,3082.69 874.513,3049.29 890.641,3024.89C906.768,3000.49 919.583,2966.28 916.377,2933.4C913.795,2906.91 912.626,2831.63 903.916,2788.54C892.969,2734.39 875.951,2705.23 855.674,2666.22C827.466,2611.95 783.381,2559.66 770.624,2503.64C757.867,2447.62 770.637,2387.4 779.132,2330.11C789.918,2257.37 816.197,2120.3 835.341,2067.2C844.485,2041.84 878.568,2022.52 893.998,2011.52Z" style="fill:rgb(160,134,119);"/>
                </g>
                <path d="M1357.27,1143.08C1356.49,1145.25 1355.61,1148.08 1354.76,1150.58C1353.37,1154.72 1350.66,1162.89 1348.88,1167.97C1347.35,1172.35 1344.49,1176.42 1344.09,1181.05C1343.6,1186.77 1343.34,1195.82 1345.93,1202.28C1348.53,1208.75 1355.17,1215.65 1359.66,1219.84C1363.37,1223.3 1367.84,1226.68 1372.86,1227.42C1378.1,1228.19 1384.99,1225.26 1391.09,1224.47C1398.29,1223.53 1409.18,1222.29 1416.04,1221.8C1421.43,1221.41 1426.84,1221.36 1432.24,1221.5C1438.03,1221.64 1445.62,1222.5 1450.78,1222.67C1454.91,1222.81 1459.58,1223.05 1463.18,1222.54C1466.36,1222.09 1471.76,1222.22 1472.36,1219.61C1472.96,1217 1469.27,1210.78 1466.77,1206.88C1463.91,1202.42 1459.63,1196.99 1455.21,1192.86C1449.99,1187.98 1441.29,1182.42 1435.47,1177.65C1430.25,1173.37 1425.6,1168.36 1420.28,1164.23C1414.96,1160.11 1409.5,1156.07 1403.57,1152.88C1397.63,1149.69 1390.56,1147.58 1384.62,1145.07C1379.04,1142.72 1371.9,1140 1367.94,1137.86C1365.29,1136.43 1362.28,1132.31 1360.86,1132.25C1359.44,1132.2 1360,1135.8 1359.43,1137.53C1358.83,1139.33 1357.94,1141.21 1357.27,1143.08Z" style="fill:rgb(190,164,147);"/>
                <path d="M1096.15,1008.95C1096.24,1006.84 1098.21,1002.43 1100.2,999.727C1102.25,996.944 1105.4,994.355 1108.44,992.256C1111.48,990.158 1115.57,987.808 1118.45,987.137C1120.84,986.579 1123.74,987.248 1125.74,988.225C1127.73,989.201 1128.27,992.406 1130.42,992.995C1133.55,993.85 1140.49,992.987 1144.48,993.357C1147.82,993.667 1152.74,993.438 1154.36,995.217C1155.98,996.995 1155.22,1001.54 1154.2,1004.03C1153.19,1006.51 1149.4,1007.52 1148.28,1010.13C1147.03,1013.02 1148.9,1018.32 1146.7,1021.42C1144.01,1025.22 1137.21,1030.82 1132.09,1032.93C1127.12,1034.99 1120.36,1033.15 1115.99,1034.09C1112.39,1034.87 1109.51,1037.84 1105.9,1038.58C1102.25,1039.33 1095.88,1039.33 1094.07,1038.58C1092.65,1037.99 1094.36,1035.46 1095.04,1034.08C1095.99,1032.14 1098.64,1029.57 1099.8,1026.95C1100.98,1024.26 1102.16,1020.35 1102.14,1017.93C1102.12,1015.92 1100.66,1013.92 1099.66,1012.42C1098.74,1011.05 1096.08,1010.6 1096.15,1008.95Z" style="fill:rgb(142,118,115);"/>
                <path d="M1112.53,1015.45C1115.3,1014.25 1118.12,1012.43 1120.67,1010.54C1123.36,1008.56 1126.59,1005.91 1128.68,1003.52C1130.57,1001.36 1132.88,998.109 1133.24,996.204C1133.53,994.642 1131.84,993.312 1130.83,992.089C1129.79,990.839 1128.51,989.486 1127,988.701C1125.18,987.754 1121.98,986.485 1119.88,986.405C1117.98,986.332 1116.11,987.286 1114.45,988.22C1111.94,989.625 1107.74,992.364 1104.85,994.835C1101.99,997.281 1098.63,1000.7 1097.09,1003.05C1095.99,1004.72 1095.09,1006.94 1095.59,1008.88C1096.1,1010.89 1098.73,1013.57 1100.14,1015.05C1101.24,1016.21 1102.48,1017.72 1104.07,1017.77C1106.13,1017.84 1109.85,1016.62 1112.53,1015.45Z" style="fill:rgb(211,167,156);"/>
                <path d="M1105.01,1216.26C1106.02,1212.5 1104.16,1206.73 1103.48,1202.19C1102.82,1197.76 1101.55,1193.44 1100.93,1189C1099.8,1180.88 1097.23,1165.36 1096.69,1153.44C1095.84,1134.78 1096.5,1094.49 1095.83,1077.06C1095.47,1067.61 1093.57,1050.7 1092.67,1048.87C1091.77,1047.04 1090.26,1060.29 1090.42,1066.07C1090.6,1072.3 1093.17,1079.45 1093.73,1086.25C1094.31,1093.41 1094,1101.43 1093.92,1109.03C1093.81,1121.35 1092.92,1149.28 1093.02,1160.19C1093.06,1164.98 1094.34,1169.7 1094.47,1174.5C1094.62,1180.12 1093.68,1187.43 1093.9,1193.9C1094.13,1200.66 1095.26,1209.9 1095.85,1215.03C1096.23,1218.28 1095.93,1224.51 1097.45,1224.71C1098.98,1224.92 1104.04,1219.91 1105.01,1216.26Z" style="fill:rgb(68,68,68);"/>
                <path d="M1244.49,1035.28C1242.78,1034.29 1240.37,1035.25 1238.58,1034.94C1236.91,1034.66 1235.1,1033.7 1233.75,1033.45C1232.66,1033.26 1230.86,1033.04 1230.44,1033.45C1230.02,1033.87 1230.89,1035.14 1231.22,1035.94C1231.83,1037.41 1233.8,1039.95 1234.08,1042.23C1234.49,1045.59 1232.7,1051.56 1233.67,1056.07C1234.72,1060.88 1237.08,1066.73 1240.34,1071.11C1243.61,1075.5 1248.52,1079.34 1253.28,1082.37C1258.04,1085.4 1263.36,1087.98 1268.89,1089.31C1275.09,1090.8 1285.43,1090.72 1290.46,1091.31C1293.36,1091.66 1296.89,1092.64 1299.07,1092.89C1300.56,1093.05 1302.69,1093.75 1303.56,1092.77C1304.43,1091.8 1304.81,1088.91 1304.3,1087.05C1303.72,1084.96 1301.96,1082.13 1300.1,1080.2C1294.98,1074.88 1282.85,1062.61 1273.58,1055.12C1264.45,1047.75 1250.33,1038.64 1244.49,1035.28Z" style="fill:rgb(99,99,99);"/>
                <path d="M1092.76,1173.59C1093.81,1174.72 1096.39,1169.88 1098.16,1167.98C1100.32,1165.65 1103.24,1162.43 1105.73,1159.61C1109.08,1155.83 1115.62,1150.08 1118.24,1145.29C1120.59,1140.98 1121.03,1135.8 1121.39,1130.9C1121.78,1125.66 1121.98,1118.45 1120.58,1113.88C1119.32,1109.77 1115.37,1106.66 1112.98,1103.48C1110.77,1100.53 1108.65,1097.25 1106.22,1094.74C1103.89,1092.33 1100.32,1088.53 1098.39,1088.42C1096.46,1088.32 1095.35,1091.97 1094.63,1094.13C1093.89,1096.34 1094.02,1099.17 1093.95,1101.71C1093.72,1110.38 1093.58,1136.24 1093.23,1146.16C1093.05,1151.18 1091.94,1156.61 1091.86,1161.19C1091.79,1165.33 1091.71,1172.46 1092.76,1173.59Z" style="fill:rgb(99,99,99);"/>
                <path d="M1249.89,1038.22C1246.57,1039.35 1242.47,1042.73 1241.14,1046.52C1239.74,1050.48 1239.29,1057.34 1241.5,1062.01C1244.07,1067.43 1250.09,1075.08 1256.53,1079.08C1263.54,1083.44 1276.3,1086.8 1283.57,1088.16C1289.01,1089.18 1297.14,1088.6 1300.14,1087.26C1302.37,1086.26 1301.97,1082.5 1301.59,1080.09C1300.86,1075.52 1297.7,1064.69 1295.8,1059.85C1294.52,1056.62 1292.61,1053.54 1290.15,1051.09C1287.15,1048.1 1282.56,1043.79 1277.78,1041.93C1272.93,1040.04 1265.71,1040.37 1261.06,1039.75C1257.33,1039.26 1253.21,1037.1 1249.89,1038.22Z" style="fill:rgb(29,12,12);"/>
                <path d="M1096.25,1101.99C1092.68,1102.74 1089.96,1106.43 1087.2,1109.09C1084.22,1111.96 1079.96,1115.5 1078.35,1119.24C1076.73,1122.98 1076.72,1127.72 1077.51,1131.52C1078.29,1135.33 1080.96,1138.7 1083.05,1142.08C1085.21,1145.58 1088.17,1150.07 1090.5,1152.52C1092.28,1154.39 1094.89,1156.36 1096.99,1156.77C1099.08,1157.17 1101.59,1156.45 1103.12,1154.98C1105.91,1152.28 1111.62,1146.04 1113.73,1140.59C1115.84,1135.14 1116.61,1128.26 1115.76,1122.26C1114.91,1116.27 1111.87,1108.01 1108.62,1104.63C1105.69,1101.6 1099.82,1101.25 1096.25,1101.99Z" style="fill:rgb(29,12,12);"/>
                <path d="M1252.42,1058.56C1251.37,1061.98 1252.26,1066.84 1255.16,1068.94C1259,1071.74 1270.13,1076.23 1275.49,1075.33C1280.86,1074.42 1286.14,1067.27 1287.34,1063.5C1288.52,1059.77 1285.35,1055.57 1282.66,1052.72C1279.88,1049.77 1273.96,1047.23 1270.64,1045.79C1268.18,1044.72 1264.97,1042.51 1262.77,1044.05C1259.74,1046.18 1253.69,1054.41 1252.42,1058.56Z" style="fill:rgb(20,33,36);"/>
                <g transform="matrix(1.09196,0.750314,-0.566319,0.824186,485.956,-759.888)">
                    <ellipse cx="1254.5" cy="1056.76" rx="2.669" ry="7.556" style="fill:white;fill-opacity:0.69;"/>
                </g>
                <g transform="matrix(1,0,0,1,-2,0)">
                    <path d="M1086.06,1125.86C1085.26,1127.5 1085.57,1129.63 1086.06,1131.35C1086.55,1133.06 1087.55,1134.95 1088.99,1136.17C1090.69,1137.61 1093.68,1140.13 1096.26,1140.01C1098.84,1139.9 1102.65,1138 1104.46,1135.48C1106.26,1132.95 1106.75,1127.81 1107.09,1124.86C1107.36,1122.5 1107.4,1119.95 1106.48,1117.76C1105.51,1115.45 1103.26,1111.62 1101.28,1110.98C1099.29,1110.33 1096.31,1112.16 1094.56,1113.87C1092.03,1116.35 1087.48,1122.95 1086.06,1125.86Z" style="fill:rgb(20,33,36);"/>
                </g>
                <g transform="matrix(1.12371,0.701875,-0.529759,0.848148,238.532,-655.211)">
                    <ellipse cx="1254.5" cy="1056.76" rx="2.669" ry="7.556" style="fill:white;fill-opacity:0.69;"/>
                </g>
                <path d="M1257.63,2125.06C1258.27,2120.87 1259.55,2112.48 1259.37,2106.16C1259.18,2099.03 1260.46,2089.21 1256.46,2082.25C1251.7,2073.98 1239.21,2063.45 1230.83,2056.51C1223.29,2050.26 1213.59,2046.93 1206.17,2040.55C1194.3,2030.36 1171.75,2013.25 1159.64,1995.32C1147.34,1977.11 1136.79,1946.78 1132.35,1931.3C1129.69,1922.06 1131.82,1906.1 1132.97,1902.47C1133.92,1899.47 1137.46,1906.93 1139.25,1909.52C1142.8,1914.68 1149.52,1925.28 1154.27,1933.39C1160.55,1944.11 1166.04,1962.88 1176.95,1973.84C1188.59,1985.54 1210.76,1997.74 1224.13,2003.57C1234.35,2008.02 1251.65,2007.94 1257.15,2008.82C1262.64,2003.09 1281.13,1984.57 1290.07,1974.41C1297.48,1966 1302.84,1955.82 1310.8,1947.92C1320.49,1938.31 1339.21,1921.99 1348.21,1916.74C1352.99,1913.95 1362.48,1914.85 1364.81,1916.41C1367.14,1917.98 1363.7,1923.15 1362.18,1926.14C1359.72,1930.96 1353.77,1938.74 1350.05,1945.33C1345.84,1952.79 1341.02,1962.73 1336.9,1970.88C1332.99,1978.63 1328.91,1986.31 1325.34,1994.22C1320.68,2004.55 1313.67,2021.67 1308.95,2032.87C1304.93,2042.38 1299.85,2053.04 1296.99,2061.43C1294.58,2068.47 1293.24,2075.97 1291.75,2083.16C1290.29,2090.24 1291.6,2098.64 1288.05,2104.54C1284.5,2110.44 1275.5,2115.15 1270.43,2118.57C1266.47,2121.25 1260.57,2123.79 1257.63,2125.06" style="fill:rgb(68,68,68);fill-opacity:0.69;"/>
                <path d="M1154.13,1257.72C1158.91,1256.62 1160.55,1266.44 1165.18,1268.87C1171.15,1272.01 1182.43,1272.32 1189.98,1276.56C1200.31,1282.36 1220.44,1295.37 1227.18,1303.71C1232.02,1309.71 1236.34,1321.72 1230.39,1326.63C1223.33,1332.45 1196.95,1332.32 1184.79,1338.67C1173.62,1344.5 1163.96,1353.96 1157.42,1364.74C1149.08,1378.49 1138.06,1403.94 1134.74,1421.17C1131.77,1436.58 1137.07,1452.48 1137.51,1468.16C1138.04,1486.81 1144.56,1522.25 1137.89,1533.06C1131.23,1543.86 1110.09,1528.19 1097.51,1532.97C1084.6,1537.88 1067.94,1560.18 1060.47,1562.51C1055.53,1564.05 1063.52,1551.54 1065.24,1546.11C1068.73,1535.1 1077.4,1513.36 1081.44,1496.41C1085.69,1478.57 1087.62,1454.15 1090.74,1439.1C1093.07,1427.9 1096.44,1416.91 1100.21,1406.11C1104.41,1394.08 1111.79,1377.84 1115.91,1366.97C1119.18,1358.36 1124.25,1347.75 1124.96,1340.87C1125.51,1335.58 1121.62,1329.53 1120.19,1325.66C1119.17,1322.89 1115.51,1320.45 1116.42,1317.64C1119.14,1309.28 1130.25,1285.46 1136.54,1275.48C1140.97,1268.42 1149.36,1258.82 1154.13,1257.72Z" style="fill:rgb(68,68,68);fill-opacity:0.69;"/>
                <path d="M1011.6,2149.62C1012.46,2147.04 1001.32,2146.58 999.261,2142.68C997.205,2138.78 1002.33,2130.78 999.261,2126.23C996.166,2121.65 982.954,2122.03 980.69,2115.19C977.554,2105.72 986.198,2083.54 980.443,2069.41C973.407,2052.12 948.946,2032.17 938.472,2011.49C928.021,1990.86 929.191,1960.34 917.598,1945.31C906.548,1930.98 884.147,1927.62 868.914,1921.29C855.08,1915.53 838.899,1915.23 826.201,1907.27C813.122,1899.08 794.044,1872 790.442,1872.13C786.839,1872.26 799.679,1896.14 804.586,1908.03C810.78,1923.05 821.593,1949.09 827.605,1962.19C831.461,1970.6 837.689,1980.5 840.655,1986.69C842.601,1990.75 842.843,1995.96 845.4,1999.34C847.958,2002.73 852.484,2006.36 856.001,2007C859.517,2007.64 863.009,2003.68 866.5,2003.2C869.961,2002.72 874.408,2001.7 876.943,2004.1C883.376,2010.2 896.414,2027.96 905.097,2039.79C913.506,2051.23 922.209,2063.67 929.045,2075.03C935.419,2085.63 939.443,2098.47 946.115,2107.97C952.491,2117.06 962.75,2128.79 969.079,2132.08C973.699,2134.49 980.488,2123.98 984.089,2127.74C988.252,2132.09 989.467,2154.52 994.052,2158.16C998.636,2161.81 1010.73,2152.2 1011.6,2149.62Z" style="fill:rgb(68,68,68);fill-opacity:0.69;"/>
                <path d="M883.456,1788.13C884.031,1790.3 900.729,1789.67 909.269,1791.12C920.784,1793.08 942.062,1799.5 952.544,1799.86C959.437,1800.09 966.491,1795.9 972.163,1793.28C977.326,1790.9 982.896,1788.03 986.575,1784.16C990.255,1780.29 995.986,1775.12 994.243,1770.07C991.71,1762.72 975.256,1750.16 971.376,1740.08C967.726,1730.6 970.481,1719.33 970.963,1709.6C971.426,1700.26 975.041,1683.97 974.271,1681.74C973.5,1679.51 968.576,1691.21 966.338,1696.24C963.891,1701.75 962.514,1708.87 959.592,1714.75C956.407,1721.16 951.761,1728.34 947.224,1734.71C941.806,1742.33 933.985,1753.22 927.085,1760.45C920.725,1767.12 913.093,1773.51 905.821,1778.12C898.924,1782.49 882.881,1785.96 883.456,1788.13Z" style="fill:rgb(68,68,68);fill-opacity:0.69;"/>
                <path d="M1119.92,1322.68C1123.11,1318.99 1127.23,1316.02 1129.71,1311.82C1133.2,1305.92 1137.35,1294.47 1140.85,1287.29C1143.92,1281 1148.82,1275.05 1150.7,1268.74C1152.55,1262.57 1154.32,1255.54 1152.16,1249.47C1149.75,1242.68 1141.77,1233.21 1136.23,1228.02C1131.4,1223.5 1124.09,1220.2 1118.92,1218.35C1114.6,1216.79 1108.76,1216.49 1105.23,1216.89C1102.43,1217.2 1099.57,1218.94 1097.7,1220.73C1095.83,1222.52 1095.38,1225.43 1094,1227.65C1092.35,1230.29 1089.26,1233.78 1087.81,1236.55C1086.55,1238.94 1085.77,1241.6 1085.29,1244.26C1084.41,1249.15 1083.06,1259.42 1082.53,1265.85C1082.07,1271.49 1082.27,1277.93 1082.14,1282.82C1082.04,1286.94 1082.56,1291.14 1081.76,1295.18C1080.59,1301.08 1076.33,1312.22 1075.11,1318.19C1074.26,1322.39 1074.27,1326.75 1074.45,1331.03C1074.69,1336.9 1075.61,1348.3 1076.55,1353.44C1077.1,1356.43 1078.78,1360.29 1080.07,1361.86C1080.99,1362.98 1083.13,1363.74 1084.3,1362.88C1087.26,1360.69 1093.5,1353.62 1097.82,1348.74C1103.76,1342.04 1114.61,1328.83 1119.92,1322.68Z" style="fill:rgb(190,164,147);"/>
            </g>
        </g>
    </g>
</svg>
